<?xml version="1.0" encoding="UTF-8"?>
<svg id="Layer_2" data-name="Layer 2" xmlns="http://www.w3.org/2000/svg" viewBox="0 0 431.2 99.84">
  <defs>
    <style>
      .cls-1 {
        letter-spacing: -.03em;
      }

      .cls-2 {
        stroke-width: .56px;
      }

      .cls-2, .cls-3, .cls-4 {
        fill: #fff;
      }

      .cls-2, .cls-4 {
        stroke: #010101;
        stroke-miterlimit: 10;
      }

      .cls-5 {
        letter-spacing: -.02em;
      }

      .cls-6 {
        letter-spacing: -.01em;
      }

      .cls-7 {
        fill: #70cddd;
      }

      .cls-8 {
        letter-spacing: 0em;
      }

      .cls-3 {
        font-family: Outfit-Regular, Outfit;
        font-size: 12px;
        font-variation-settings: 'wght' 400;
      }

      .cls-9 {
        fill: #b9539f;
      }

      .cls-10 {
        letter-spacing: 0em;
      }

      .cls-4 {
        stroke-width: .54px;
      }
    </style>
  </defs>
  <g id="Layer_1-2" data-name="Layer 1">
    <g>
      <g>
        <g>
          <path class="cls-7" d="m382.83,92.72c11.94-.13,23.15-4.87,31.56-13.36,8.42-8.5,13.05-19.76,13.05-31.72,0-11.96-4.63-23.22-13.05-31.72-8.41-8.49-19.62-13.23-31.56-13.36l-.04,3.54c22.67.24,41.11,18.87,41.11,41.54,0,22.67-18.44,41.3-41.11,41.54l.04,3.54Z"/>
          <path class="cls-7" d="m365.85,38.6h21.3c.98,0,1.77-.79,1.77-1.77s-.79-1.77-1.77-1.77h-19.53v-18.81c0-.98-.79-1.77-1.77-1.77s-1.77.79-1.77,1.77v20.58c0,.98.79,1.77,1.77,1.77Z"/>
          <path class="cls-7" d="m345.18,46.81h48.46c.98,0,1.77-.79,1.77-1.77,0-.98-.79-1.77-1.77-1.77h-46.69v-6.62c0-.98-.79-1.77-1.77-1.77s-1.77.79-1.77,1.77v8.39c0,.98.79,1.77,1.77,1.77Z"/>
          <path class="cls-7" d="m346.49,55.01h48.12c.98,0,1.77-.79,1.77-1.77,0-.98-.79-1.77-1.77-1.77h-48.12c-.98,0-1.77.79-1.77,1.77s.79,1.77,1.77,1.77Z"/>
          <path class="cls-7" d="m356.27,75.12h7.23c.98,0,1.77-.79,1.77-1.77v-9.78h22.36c.98,0,1.77-.79,1.77-1.77s-.79-1.77-1.77-1.77h-24.13c-.98,0-1.77.79-1.77,1.77v9.78h-5.46c-.98,0-1.77.79-1.77,1.77,0,.98.79,1.77,1.77,1.77Z"/>
          <g>
            <path class="cls-7" d="m378.6,90.73c0,1.2.97,2.17,2.17,2.17s2.17-.97,2.17-2.17c0-1.2-.97-2.17-2.17-2.17s-2.17.97-2.17,2.17Z"/>
            <path class="cls-7" d="m376.83,90.73c0-2.17,1.77-3.94,3.94-3.94,2.17,0,3.94,1.77,3.94,3.94,0,2.17-1.77,3.94-3.94,3.94s-3.94-1.77-3.94-3.94Zm3.54,0c0,.22.18.4.4.4s.4-.18.4-.4c0-.22-.18-.4-.4-.4s-.4.18-.4.4Z"/>
          </g>
          <g>
            <path class="cls-7" d="m378.6,4.2c0,1.2.97,2.17,2.17,2.17s2.17-.97,2.17-2.17c0-1.2-.97-2.17-2.17-2.17s-2.17.97-2.17,2.17Z"/>
            <path class="cls-7" d="m376.83,4.2c0-2.17,1.77-3.94,3.94-3.94s3.94,1.77,3.94,3.94c0,2.17-1.77,3.94-3.94,3.94s-3.94-1.77-3.94-3.94Zm3.54,0c0,.22.18.4.4.4s.4-.18.4-.4c0-.22-.18-.4-.4-.4s-.4.18-.4.4Z"/>
          </g>
          <g>
            <path class="cls-7" d="m404.98,57.78c.81,0,1.72-.15,2.73-.5,5.51-1.94,10.93-9.03,11.55-12.63.24-1.38,1.16-1.77,3.55-2.45.82-.23,1.66-.48,2.47-.84.9-.39,1.3-1.44.91-2.33-.39-.9-1.44-1.3-2.33-.91-.6.26-1.3.46-2.03.68-2.29.66-5.42,1.56-6.06,5.25-.4,2.33-4.93,8.37-9.23,9.89-1.71.6-2.62.18-3.17-.25.09-.91,1.79-3.26,2.82-4.69,2.22-3.08,4.15-5.74,3.38-8.08-.24-.73-.85-1.71-2.4-2.22-2.35-.76-3.84-.67-4.82-.6-.93.06-1.18.08-2.92-2.64-2.38-3.72-6.81-4.71-10.04-5.44-1.17-.26-2.92-.66-3.36-1.03.05-.99,1.07-2.31,2.51-3.24,1.47-.95,3.71-1.66,5.58-.81,3.75,1.69,7.04.47,8.22-1.53.83-1.4.75-3.5-1.28-5.03-1.39-1.04-2.28-2.68-2.38-3.41.18-.01.49,0,.97.09,3.04.61,6.26.34,8.83-.72.9-.37,1.33-1.41.96-2.31-.37-.9-1.41-1.33-2.31-.96-1.92.79-4.46.99-6.79.52-3.3-.66-4.49.82-4.91,1.76-1.15,2.56,1.3,6.22,3.5,7.87.27.21.36.36.37.4-.01,0-.13.19-.5.35-.31.14-1.47.54-3.23-.26-2.69-1.22-6.04-.82-8.96,1.06-2.55,1.65-4.13,4.06-4.13,6.29,0,3.04,3.25,3.77,6.12,4.41,2.93.66,6.24,1.4,7.84,3.9,2.45,3.83,3.68,4.42,6.13,4.26.84-.06,1.79-.12,3.5.44.05.02.09.03.12.04-.08.95-1.89,3.44-2.88,4.82-2.48,3.44-5.05,6.99-2.42,9.31.89.78,2.23,1.55,4.08,1.55Z"/>
            <path class="cls-7" d="m408.21,84.23c.37,0,.75-.12,1.07-.36,1.84-1.39,4.8-5.21,2.91-9.7-1.41-3.35-3.6-4.88-5.35-6.11-.84-.59-1.56-1.1-2.1-1.72-.57-.65-1.01-1.86-1.44-3.02-.83-2.24-1.85-5.03-4.64-5.14-2.1-.06-3.57,1.74-5.26,3.85-1.61,2.01-3.44,4.28-5.9,5.18-.94.34-2.05.43-3.13.52-1.42.11-2.89.23-4.09.94-.84.5-1.12,1.58-.63,2.42.5.84,1.58,1.12,2.42.63.5-.3,1.56-.38,2.58-.46,1.25-.1,2.67-.21,4.06-.72,3.39-1.23,5.64-4.03,7.45-6.29.77-.96,1.94-2.41,2.43-2.54.36.02,1.08,1.99,1.39,2.83.54,1.47,1.1,2.98,2.09,4.12.82.95,1.8,1.63,2.74,2.29,1.6,1.12,3.11,2.18,4.12,4.59,1.31,3.11-1.75,5.48-1.78,5.5-.78.59-.93,1.7-.34,2.48.35.46.88.7,1.41.7Z"/>
          </g>
          <path class="cls-7" d="m391.17,18.45c.98,0,1.77-.79,1.77-1.77v-5.79c0-.98-.79-1.77-1.77-1.77s-1.77.79-1.77,1.77v5.79c0,.98.79,1.77,1.77,1.77Z"/>
          <path class="cls-7" d="m386.15,21.1c.98,0,1.77-.79,1.77-1.77v-8.44c0-.98-.79-1.77-1.77-1.77s-1.77.79-1.77,1.77v8.44c0,.98.79,1.77,1.77,1.77Z"/>
          <path class="cls-7" d="m380.89,25.65c.98,0,1.77-.79,1.77-1.77v-12.98c0-.98-.79-1.77-1.77-1.77s-1.77.79-1.77,1.77v12.98c0,.98.79,1.77,1.77,1.77Z"/>
          <path class="cls-7" d="m384.1,77.26h8.41c.98,0,1.77-.79,1.77-1.77s-.79-1.77-1.77-1.77h-8.41c-.98,0-1.77.79-1.77,1.77,0,.98.79,1.77,1.77,1.77Z"/>
          <path class="cls-7" d="m379.88,81.96h7.02c.98,0,1.77-.79,1.77-1.77s-.79-1.77-1.77-1.77h-7.02c-.98,0-1.77.79-1.77,1.77,0,.98.79,1.77,1.77,1.77Z"/>
          <path class="cls-7" d="m384.6,86.66h7.02c.98,0,1.77-.79,1.77-1.77s-.79-1.77-1.77-1.77h-7.02c-.98,0-1.77.79-1.77,1.77,0,.98.79,1.77,1.77,1.77Z"/>
          <path class="cls-7" d="m360.96,11.88c0-2.66,2.16-4.82,4.82-4.82s4.82,2.16,4.82,4.82-2.16,4.82-4.82,4.82-4.82-2.16-4.82-4.82Zm3.06,0c0,.97.79,1.76,1.76,1.76s1.76-.79,1.76-1.76c0-.97-.79-1.76-1.76-1.76s-1.76.79-1.76,1.76Z"/>
          <path class="cls-7" d="m340.31,31.79c0-2.66,2.16-4.82,4.82-4.82,2.66,0,4.82,2.16,4.82,4.82s-2.16,4.82-4.82,4.82-4.82-2.16-4.82-4.82Zm3.06,0c0,.97.79,1.76,1.76,1.76s1.76-.79,1.76-1.76c0-.97-.79-1.76-1.76-1.76s-1.76.79-1.76,1.76Z"/>
          <path class="cls-7" d="m338.06,53.41c0-2.66,2.16-4.82,4.82-4.82,2.66,0,4.82,2.16,4.82,4.82s-2.16,4.82-4.82,4.82-4.82-2.16-4.82-4.82Zm3.06,0c0,.97.79,1.76,1.76,1.76s1.76-.79,1.76-1.76c0-.97-.79-1.76-1.76-1.76s-1.76.79-1.76,1.76Z"/>
          <path class="cls-7" d="m347.74,73.08c0-2.66,2.16-4.82,4.82-4.82s4.82,2.16,4.82,4.82c0,2.66-2.16,4.82-4.82,4.82s-4.82-2.16-4.82-4.82Zm3.06,0c0,.97.79,1.76,1.76,1.76s1.76-.79,1.76-1.76c0-.97-.79-1.76-1.76-1.76s-1.76.79-1.76,1.76Z"/>
        </g>
        <g>
          <path class="cls-9" d="m386.59,92.72c11.94-.13,23.15-4.87,31.56-13.36,8.42-8.5,13.05-19.76,13.05-31.72s-4.63-23.22-13.05-31.72c-8.41-8.49-19.62-13.23-31.56-13.36l-.04,3.54c22.67.24,41.11,18.87,41.11,41.54,0,22.67-18.44,41.3-41.11,41.54l.04,3.54Z"/>
          <path class="cls-9" d="m369.6,38.6h21.3c.98,0,1.77-.79,1.77-1.77,0-.98-.79-1.77-1.77-1.77h-19.53v-18.81c0-.98-.79-1.77-1.77-1.77s-1.77.79-1.77,1.77v20.58c0,.98.79,1.77,1.77,1.77Z"/>
          <path class="cls-9" d="m348.94,46.81h48.46c.98,0,1.77-.79,1.77-1.77,0-.98-.79-1.77-1.77-1.77h-46.69v-6.62c0-.98-.79-1.77-1.77-1.77s-1.77.79-1.77,1.77v8.39c0,.98.79,1.77,1.77,1.77Z"/>
          <path class="cls-9" d="m350.25,55.01h48.12c.98,0,1.77-.79,1.77-1.77,0-.98-.79-1.77-1.77-1.77h-48.12c-.98,0-1.77.79-1.77,1.77,0,.98.79,1.77,1.77,1.77Z"/>
          <path class="cls-9" d="m360.02,75.12h7.23c.98,0,1.77-.79,1.77-1.77v-9.78h22.36c.98,0,1.77-.79,1.77-1.77,0-.98-.79-1.77-1.77-1.77h-24.13c-.98,0-1.77.79-1.77,1.77v9.78h-5.46c-.98,0-1.77.79-1.77,1.77s.79,1.77,1.77,1.77Z"/>
          <g>
            <path class="cls-9" d="m382.36,90.73c0,1.2.97,2.17,2.17,2.17s2.17-.97,2.17-2.17-.97-2.17-2.17-2.17-2.17.97-2.17,2.17Z"/>
            <path class="cls-9" d="m380.59,90.73c0-2.17,1.77-3.94,3.94-3.94,2.17,0,3.94,1.77,3.94,3.94,0,2.17-1.77,3.94-3.94,3.94s-3.94-1.77-3.94-3.94Zm3.54,0c0,.22.18.4.4.4s.4-.18.4-.4c0-.22-.18-.4-.4-.4s-.4.18-.4.4Z"/>
          </g>
          <g>
            <path class="cls-9" d="m382.36,4.2c0,1.2.97,2.17,2.17,2.17s2.17-.97,2.17-2.17c0-1.2-.97-2.17-2.17-2.17s-2.17.97-2.17,2.17Z"/>
            <path class="cls-9" d="m380.59,4.2c0-2.17,1.77-3.94,3.94-3.94s3.94,1.77,3.94,3.94c0,2.17-1.77,3.94-3.94,3.94s-3.94-1.77-3.94-3.94Zm3.54,0c0,.22.18.4.4.4s.4-.18.4-.4c0-.22-.18-.4-.4-.4s-.4.18-.4.4Z"/>
          </g>
          <g>
            <path class="cls-9" d="m408.74,57.78c.81,0,1.72-.15,2.73-.5,5.51-1.94,10.93-9.03,11.55-12.63.24-1.38,1.16-1.77,3.55-2.45.82-.23,1.66-.48,2.47-.84.9-.39,1.3-1.44.91-2.33-.39-.9-1.44-1.3-2.33-.91-.6.26-1.3.46-2.03.68-2.29.66-5.42,1.56-6.06,5.25-.4,2.33-4.93,8.37-9.23,9.89-1.71.6-2.62.18-3.17-.25.09-.91,1.79-3.26,2.82-4.69,2.22-3.08,4.15-5.74,3.38-8.08-.24-.73-.85-1.71-2.4-2.22-2.35-.76-3.84-.67-4.82-.6-.93.06-1.18.08-2.92-2.64-2.38-3.72-6.81-4.71-10.04-5.44-1.17-.26-2.92-.66-3.36-1.03.05-.99,1.07-2.31,2.51-3.24,1.47-.95,3.71-1.66,5.58-.81,3.75,1.69,7.04.47,8.22-1.53.83-1.4.75-3.5-1.28-5.03-1.39-1.04-2.28-2.68-2.38-3.41.18-.01.49,0,.97.09,3.04.61,6.26.34,8.83-.72.9-.37,1.33-1.41.96-2.31-.37-.9-1.41-1.33-2.31-.96-1.92.79-4.46.99-6.79.52-3.3-.66-4.49.82-4.91,1.76-1.15,2.56,1.3,6.22,3.5,7.87.27.21.36.36.37.4-.01,0-.13.19-.5.35-.31.14-1.47.54-3.23-.26-2.69-1.22-6.04-.82-8.96,1.06-2.55,1.65-4.13,4.06-4.13,6.29,0,3.04,3.25,3.77,6.12,4.41,2.93.66,6.24,1.4,7.84,3.9,2.45,3.83,3.68,4.42,6.13,4.26.84-.06,1.79-.12,3.5.44.05.02.09.03.12.04-.08.95-1.89,3.44-2.88,4.82-2.48,3.44-5.05,6.99-2.42,9.31.89.78,2.23,1.55,4.08,1.55Z"/>
            <path class="cls-9" d="m411.96,84.23c.37,0,.75-.12,1.07-.36,1.84-1.39,4.8-5.21,2.91-9.7-1.41-3.35-3.6-4.88-5.35-6.11-.84-.59-1.56-1.1-2.1-1.72-.57-.65-1.01-1.86-1.44-3.02-.83-2.24-1.85-5.03-4.64-5.14-2.1-.06-3.57,1.74-5.26,3.85-1.61,2.01-3.44,4.28-5.9,5.18-.94.34-2.05.43-3.13.52-1.42.11-2.89.23-4.09.94-.84.5-1.12,1.58-.63,2.42.5.84,1.58,1.12,2.42.63.5-.3,1.56-.38,2.58-.46,1.25-.1,2.67-.21,4.06-.72,3.39-1.23,5.64-4.03,7.45-6.29.77-.96,1.94-2.41,2.43-2.54.36.02,1.08,1.99,1.39,2.83.54,1.47,1.1,2.98,2.09,4.12.82.95,1.8,1.63,2.74,2.29,1.6,1.12,3.11,2.18,4.12,4.59,1.31,3.11-1.75,5.48-1.78,5.5-.78.59-.93,1.7-.34,2.48.35.46.88.7,1.41.7Z"/>
          </g>
          <path class="cls-9" d="m394.92,18.45c.98,0,1.77-.79,1.77-1.77v-5.79c0-.98-.79-1.77-1.77-1.77s-1.77.79-1.77,1.77v5.79c0,.98.79,1.77,1.77,1.77Z"/>
          <path class="cls-9" d="m389.91,21.1c.98,0,1.77-.79,1.77-1.77v-8.44c0-.98-.79-1.77-1.77-1.77s-1.77.79-1.77,1.77v8.44c0,.98.79,1.77,1.77,1.77Z"/>
          <path class="cls-9" d="m384.65,25.65c.98,0,1.77-.79,1.77-1.77v-12.98c0-.98-.79-1.77-1.77-1.77s-1.77.79-1.77,1.77v12.98c0,.98.79,1.77,1.77,1.77Z"/>
          <path class="cls-9" d="m387.86,77.26h8.41c.98,0,1.77-.79,1.77-1.77,0-.98-.79-1.77-1.77-1.77h-8.41c-.98,0-1.77.79-1.77,1.77,0,.98.79,1.77,1.77,1.77Z"/>
          <path class="cls-9" d="m383.63,81.96h7.02c.98,0,1.77-.79,1.77-1.77,0-.98-.79-1.77-1.77-1.77h-7.02c-.98,0-1.77.79-1.77,1.77,0,.98.79,1.77,1.77,1.77Z"/>
          <path class="cls-9" d="m388.36,86.66h7.02c.98,0,1.77-.79,1.77-1.77,0-.98-.79-1.77-1.77-1.77h-7.02c-.98,0-1.77.79-1.77,1.77,0,.98.79,1.77,1.77,1.77Z"/>
          <path class="cls-9" d="m364.72,11.88c0-2.66,2.16-4.82,4.82-4.82s4.82,2.16,4.82,4.82-2.16,4.82-4.82,4.82-4.82-2.16-4.82-4.82Zm3.06,0c0,.97.79,1.76,1.76,1.76s1.76-.79,1.76-1.76-.79-1.76-1.76-1.76-1.76.79-1.76,1.76Z"/>
          <path class="cls-9" d="m344.06,31.79c0-2.66,2.16-4.82,4.82-4.82,2.66,0,4.82,2.16,4.82,4.82s-2.16,4.82-4.82,4.82-4.82-2.16-4.82-4.82Zm3.06,0c0,.97.79,1.76,1.76,1.76s1.76-.79,1.76-1.76c0-.97-.79-1.76-1.76-1.76s-1.76.79-1.76,1.76Z"/>
          <path class="cls-9" d="m341.81,53.41c0-2.66,2.16-4.82,4.82-4.82,2.66,0,4.82,2.16,4.82,4.82,0,2.66-2.16,4.82-4.82,4.82s-4.82-2.16-4.82-4.82Zm3.06,0c0,.97.79,1.76,1.76,1.76s1.76-.79,1.76-1.76-.79-1.76-1.76-1.76-1.76.79-1.76,1.76Z"/>
          <path class="cls-9" d="m351.5,73.08c0-2.66,2.16-4.82,4.82-4.82s4.82,2.16,4.82,4.82-2.16,4.82-4.82,4.82-4.82-2.16-4.82-4.82Zm3.06,0c0,.97.79,1.76,1.76,1.76s1.76-.79,1.76-1.76c0-.97-.79-1.76-1.76-1.76s-1.76.79-1.76,1.76Z"/>
        </g>
        <g>
          <path class="cls-4" d="m384.44,92.72c11.94-.13,23.15-4.87,31.56-13.36,8.42-8.5,13.05-19.76,13.05-31.72,0-11.96-4.63-23.22-13.05-31.72-8.41-8.49-19.62-13.23-31.56-13.36l-.04,3.54c22.67.24,41.11,18.87,41.11,41.54s-18.44,41.3-41.11,41.54l.04,3.54Z"/>
          <path class="cls-4" d="m367.46,38.6h21.3c.98,0,1.77-.79,1.77-1.77,0-.98-.79-1.77-1.77-1.77h-19.53v-18.81c0-.98-.79-1.77-1.77-1.77s-1.77.79-1.77,1.77v20.58c0,.98.79,1.77,1.77,1.77Z"/>
          <path class="cls-4" d="m346.79,46.81h48.46c.98,0,1.77-.79,1.77-1.77s-.79-1.77-1.77-1.77h-46.69v-6.62c0-.98-.79-1.77-1.77-1.77s-1.77.79-1.77,1.77v8.39c0,.98.79,1.77,1.77,1.77Z"/>
          <path class="cls-4" d="m348.1,55.01h48.12c.98,0,1.77-.79,1.77-1.77,0-.98-.79-1.77-1.77-1.77h-48.12c-.98,0-1.77.79-1.77,1.77,0,.98.79,1.77,1.77,1.77Z"/>
          <path class="cls-4" d="m357.88,75.12h7.23c.98,0,1.77-.79,1.77-1.77v-9.78h22.36c.98,0,1.77-.79,1.77-1.77,0-.98-.79-1.77-1.77-1.77h-24.13c-.98,0-1.77.79-1.77,1.77v9.78h-5.46c-.98,0-1.77.79-1.77,1.77,0,.98.79,1.77,1.77,1.77Z"/>
          <g>
            <path class="cls-4" d="m380.21,90.73c0,1.2.97,2.17,2.17,2.17s2.17-.97,2.17-2.17c0-1.2-.97-2.17-2.17-2.17s-2.17.97-2.17,2.17Z"/>
            <path class="cls-4" d="m378.44,90.73c0-2.17,1.77-3.94,3.94-3.94,2.17,0,3.94,1.77,3.94,3.94s-1.77,3.94-3.94,3.94-3.94-1.77-3.94-3.94Zm3.54,0c0,.22.18.4.4.4s.4-.18.4-.4c0-.22-.18-.4-.4-.4s-.4.18-.4.4Z"/>
          </g>
          <g>
            <path class="cls-4" d="m380.21,4.2c0,1.2.97,2.17,2.17,2.17s2.17-.97,2.17-2.17c0-1.2-.97-2.17-2.17-2.17s-2.17.97-2.17,2.17Z"/>
            <path class="cls-4" d="m378.44,4.2c0-2.17,1.77-3.94,3.94-3.94s3.94,1.77,3.94,3.94c0,2.17-1.77,3.94-3.94,3.94s-3.94-1.77-3.94-3.94Zm3.54,0c0,.22.18.4.4.4s.4-.18.4-.4c0-.22-.18-.4-.4-.4s-.4.18-.4.4Z"/>
          </g>
          <g>
            <path class="cls-4" d="m406.59,57.78c.81,0,1.72-.15,2.73-.5,5.51-1.94,10.93-9.03,11.55-12.63.24-1.38,1.16-1.77,3.55-2.45.82-.23,1.66-.48,2.47-.84.9-.39,1.3-1.44.91-2.33-.39-.9-1.44-1.3-2.33-.91-.6.26-1.3.46-2.03.68-2.29.66-5.42,1.56-6.06,5.25-.4,2.33-4.93,8.37-9.23,9.89-1.71.6-2.62.18-3.17-.25.09-.91,1.79-3.26,2.82-4.69,2.22-3.08,4.15-5.74,3.38-8.08-.24-.73-.85-1.71-2.4-2.22-2.35-.76-3.84-.67-4.82-.6-.93.06-1.18.08-2.92-2.64-2.38-3.72-6.81-4.71-10.04-5.44-1.17-.26-2.92-.66-3.36-1.03.05-.99,1.07-2.31,2.51-3.24,1.47-.95,3.71-1.66,5.58-.81,3.75,1.69,7.04.47,8.22-1.53.83-1.4.75-3.5-1.28-5.03-1.39-1.04-2.28-2.68-2.38-3.41.18-.01.49,0,.97.09,3.04.61,6.26.34,8.83-.72.9-.37,1.33-1.41.96-2.31-.37-.9-1.41-1.33-2.31-.96-1.92.79-4.46.99-6.79.52-3.3-.66-4.49.82-4.91,1.76-1.15,2.56,1.3,6.22,3.5,7.87.27.21.36.36.37.4-.01,0-.13.19-.5.35-.31.14-1.47.54-3.23-.26-2.69-1.22-6.04-.82-8.96,1.06-2.55,1.65-4.13,4.06-4.13,6.29,0,3.04,3.25,3.77,6.12,4.41,2.93.66,6.24,1.4,7.84,3.9,2.45,3.83,3.68,4.42,6.13,4.26.84-.06,1.79-.12,3.5.44.05.02.09.03.12.04-.08.95-1.89,3.44-2.88,4.82-2.48,3.44-5.05,6.99-2.42,9.31.89.78,2.23,1.55,4.08,1.55Z"/>
            <path class="cls-4" d="m409.82,84.23c.37,0,.75-.12,1.07-.36,1.84-1.39,4.8-5.21,2.91-9.7-1.41-3.35-3.6-4.88-5.35-6.11-.84-.59-1.56-1.1-2.1-1.72-.57-.65-1.01-1.86-1.44-3.02-.83-2.24-1.85-5.03-4.64-5.14-2.1-.06-3.57,1.74-5.26,3.85-1.61,2.01-3.44,4.28-5.9,5.18-.94.34-2.05.43-3.13.52-1.42.11-2.89.23-4.09.94-.84.5-1.12,1.58-.63,2.42.5.84,1.58,1.12,2.42.63.5-.3,1.56-.38,2.58-.46,1.25-.1,2.67-.21,4.06-.72,3.39-1.23,5.64-4.03,7.45-6.29.77-.96,1.94-2.41,2.43-2.54.36.02,1.08,1.99,1.39,2.83.54,1.47,1.1,2.98,2.09,4.12.82.95,1.8,1.63,2.74,2.29,1.6,1.12,3.11,2.18,4.12,4.59,1.31,3.11-1.75,5.48-1.78,5.5-.78.59-.93,1.7-.34,2.48.35.46.88.7,1.41.7Z"/>
          </g>
          <path class="cls-4" d="m392.78,18.45c.98,0,1.77-.79,1.77-1.77v-5.79c0-.98-.79-1.77-1.77-1.77s-1.77.79-1.77,1.77v5.79c0,.98.79,1.77,1.77,1.77Z"/>
          <path class="cls-4" d="m387.76,21.1c.98,0,1.77-.79,1.77-1.77v-8.44c0-.98-.79-1.77-1.77-1.77s-1.77.79-1.77,1.77v8.44c0,.98.79,1.77,1.77,1.77Z"/>
          <path class="cls-4" d="m382.5,25.65c.98,0,1.77-.79,1.77-1.77v-12.98c0-.98-.79-1.77-1.77-1.77s-1.77.79-1.77,1.77v12.98c0,.98.79,1.77,1.77,1.77Z"/>
          <path class="cls-4" d="m385.71,77.26h8.41c.98,0,1.77-.79,1.77-1.77,0-.98-.79-1.77-1.77-1.77h-8.41c-.98,0-1.77.79-1.77,1.77,0,.98.79,1.77,1.77,1.77Z"/>
          <path class="cls-4" d="m381.49,81.96h7.02c.98,0,1.77-.79,1.77-1.77,0-.98-.79-1.77-1.77-1.77h-7.02c-.98,0-1.77.79-1.77,1.77,0,.98.79,1.77,1.77,1.77Z"/>
          <path class="cls-4" d="m386.21,86.66h7.02c.98,0,1.77-.79,1.77-1.77s-.79-1.77-1.77-1.77h-7.02c-.98,0-1.77.79-1.77,1.77,0,.98.79,1.77,1.77,1.77Z"/>
          <path class="cls-4" d="m362.57,11.88c0-2.66,2.16-4.82,4.82-4.82s4.82,2.16,4.82,4.82-2.16,4.82-4.82,4.82-4.82-2.16-4.82-4.82Zm3.06,0c0,.97.79,1.76,1.76,1.76s1.76-.79,1.76-1.76c0-.97-.79-1.76-1.76-1.76s-1.76.79-1.76,1.76Z"/>
          <path class="cls-4" d="m341.91,31.79c0-2.66,2.16-4.82,4.82-4.82,2.66,0,4.82,2.16,4.82,4.82,0,2.66-2.16,4.82-4.82,4.82s-4.82-2.16-4.82-4.82Zm3.06,0c0,.97.79,1.76,1.76,1.76s1.76-.79,1.76-1.76c0-.97-.79-1.76-1.76-1.76s-1.76.79-1.76,1.76Z"/>
          <path class="cls-4" d="m339.66,53.41c0-2.66,2.16-4.82,4.82-4.82,2.66,0,4.82,2.16,4.82,4.82,0,2.66-2.16,4.82-4.82,4.82s-4.82-2.16-4.82-4.82Zm3.06,0c0,.97.79,1.76,1.76,1.76s1.76-.79,1.76-1.76c0-.97-.79-1.76-1.76-1.76s-1.76.79-1.76,1.76Z"/>
          <path class="cls-4" d="m349.35,73.08c0-2.66,2.16-4.82,4.82-4.82s4.82,2.16,4.82,4.82-2.16,4.82-4.82,4.82-4.82-2.16-4.82-4.82Zm3.06,0c0,.97.79,1.76,1.76,1.76s1.76-.79,1.76-1.76c0-.97-.79-1.76-1.76-1.76s-1.76.79-1.76,1.76Z"/>
        </g>
      </g>
      <g>
        <g>
          <rect class="cls-9" x="52.07" y="60.29" width="12.43" height="2.03"/>
          <path class="cls-9" d="m33.43,66.46h-8.68v-4.14h-14.02v-2.03h-5.73v2.03h5.64v16.53c0,.15.06.22.18.22h13.93v-1.37h14.5v-11.24h12.83v-4.14h-18.64v4.14Z"/>
          <rect class="cls-9" x="24.74" y="60.29" width="8.68" height="2.03"/>
          <path class="cls-9" d="m23.02,44.91v-18.47h2.56c3.59,0,6.2.47,7.85,1.41,2.76,1.7,4.14,5.66,4.14,11.86v5.51h1.67v13.4h-5.82v1.67h18.64v-15.07h-1.9c0-9.81-1.26-16.85-3.79-21.11-3.03-5.44-8.55-8.15-16.57-8.15H10.64v30.15h1.46v14.19h12.65v-15.38h-1.72Z"/>
          <path class="cls-9" d="m61.88,16.35h30.9v10.27c0,.15-.07.22-.22.22h-18.34v13.58h16.44v.13c0,.38-.06,2.6-.18,6.66-.09,0-.13.03-.13.09h.75v3.17h-14.24v12.87h-3.84v1.28h3.84v3.92h16.13v1.46h-1.28v7.71h-19.31v1.37h-9.17v-22.48h-1.37v-7.93h-10.05v-1.37h10.05v-30.94Zm.09,30.94v1.37h5.16v-1.37h-5.16Z"/>
          <path class="cls-9" d="m100.92,15.87h13.4c.09.74,1.78,8.95,5.07,24.64h2.78v2.43h-3.35v-2.43h-4.72v2.43h4.72v11.33h1.5v5.86h3.7v-8.64h1.41v-8.55h2.65v-2.43h-2.07c3.29-15.69,4.98-23.9,5.07-24.64h13.4c-4.85,21.1-7.27,31.85-7.27,32.26v10.98h-3.7v2.16h2.78v6.48h-4.98v11.33h-15.69c-.15,0-.57-1.62-1.28-4.85h4.05v-2.64h-4.5c-.21,0-.63-1.7-1.28-5.11-.32-1.03-4.22-17.89-11.68-50.6Z"/>
          <path class="cls-9" d="m150.98,15.91h12.52v25.17h12.65V15.91h10.62v35.88h-4.36v1.59h4.36v25.7h-10.4c-.15,0-.22-.07-.22-.22v-27.28h-12.65v27.28c0,.15-.07.22-.22.22h-10.49v-32.93h-1.81V15.91Zm35.79,35.88h5.6v1.59h-5.6v-1.59Z"/>
          <path class="cls-9" d="m192.31,50.38h8.29v1.9h-8.29v-1.9Zm22.74-34.34h10.62c.15.62,3.59,12.09,10.31,34.42h1.94v20.76h-4.36v1.59h4.36v4.45h-11.73v-12.74h-14.32v5.42h-5.86v9.12h-10.62v-.62h.84v-8.51h4.36v-17.67h3.61l10.84-36.23Zm4.98,17.76v.09c-.91,5.02-2.67,12.93-5.29,23.71h9.87v-7.14h-.84c-2.35-10.2-3.53-15.75-3.53-16.66h-.22Zm6.17,44.21h14.15v1.06h-14.15v-1.06Z"/>
          <path class="cls-9" d="m266.3,15.91c8.81,0,14.35,2.76,16.62,8.29.67,1.32,1.01,2.2,1.01,2.64h-5.55v1.68h5.99v-.09c0-.29-.15-.82-.44-1.59h10.18v1.68h-9.65v.13c.5,2.38.85,4.92,1.06,7.63,0,.15-3.86.43-11.59.84v-.09c0-6.99-2.4-10.49-7.18-10.49h-1.32c-3.59,0-5.77,1.53-6.57,4.58-.62,2.56-.93,5.95-.93,10.18v8.59l-.13,1.28h-4.05v1.98h4.05v15.29h16.97v-15.91h9.79v15.91h-5.42v9.79h-11.33v.84h-8.81v-.84h-8.95v-4.89h5.95v-2.12h-8.95v-7.23h-3.79v-8.95h2.03c-.09-3.64-.13-6.54-.13-8.68,0-9.61.46-15.66,1.37-18.16.91-2.88,2.34-5.35,4.28-7.4,3.47-3.26,8.64-4.89,15.52-4.89Z"/>
          <path class="cls-9" d="m291.01,16.31h12.34v11.81c0,3.94-.07,8.18-.22,12.74v.13h.13c1-1.94,3.77-6.9,8.33-14.9,2.32-4.06,3.48-7.11,3.48-9.17v-.62h12.65v.31c0,4.03-1.65,8.42-4.94,13.18l-7.49,10.89,7.36,15.69h6.66v1.9h-7.49v.13c1.2,2.59,1.98,4.13,2.34,4.63h1.37v5.69h1.9v10.27c-2.15.06-3.73.09-4.76.09h-3.04c-1.09,0-2.57-.03-4.45-.09v-6.88h-2.73v-9.08h-1.59l-1.67-4.76h12.56v-1.9h-11.5c0-.15-.68-2.25-2.03-6.3h-.09c-.7,1.32-2.11,3.42-4.23,6.3h5.29v1.9h-5.82v3.09h-.75v14.32h.75v3.17c0,.15-.07.22-.22.22h-11.9c-.15,0-.22-.07-.22-.22v-4.94h5.6v-2.12h-5.6V16.31Zm5.07,40.07v1.9h7.19c0-.23.18-.87.53-1.9h-7.71Z"/>
        </g>
        <g>
          <rect class="cls-7" x="19.75" y="60.29" width="8.68" height="2.03"/>
          <path class="cls-7" d="m28.43,66.46h-8.68v-4.14H5.73v-2.03H0v2.03h5.64v16.53c0,.15.06.22.18.22h13.93v-1.37h14.5v-11.24h12.83v-4.14h-18.64v4.14Z"/>
          <path class="cls-7" d="m18.03,44.91v-18.47h2.56c3.59,0,6.2.47,7.85,1.41,2.76,1.7,4.14,5.66,4.14,11.86v5.51h1.67v13.4h-5.82v1.67h18.64v-15.07h-1.9c0-9.81-1.26-16.85-3.79-21.11-3.03-5.44-8.55-8.15-16.57-8.15H5.64v30.15h1.46v14.19h12.65v-15.38h-1.72Z"/>
          <rect class="cls-7" x="47.07" y="60.29" width="12.43" height="2.03"/>
          <path class="cls-7" d="m56.89,16.35h30.9v10.27c0,.15-.07.22-.22.22h-18.34v13.58h16.44v.13c0,.38-.06,2.6-.18,6.66-.09,0-.13.03-.13.09h.75v3.17h-14.24v12.87h-3.84v1.28h3.84v3.92h16.13v1.46h-1.28v7.71h-19.31v1.37h-9.17v-22.48h-1.37v-7.93h-10.05v-1.37h10.05v-30.94Zm.09,30.94v1.37h5.16v-1.37h-5.16Z"/>
          <path class="cls-7" d="m95.93,15.87h13.4c.09.74,1.78,8.95,5.07,24.64h2.78v2.43h-3.35v-2.43h-4.72v2.43h4.72v11.33h1.5v5.86h3.7v-8.64h1.41v-8.55h2.65v-2.43h-2.07c3.29-15.69,4.98-23.9,5.07-24.64h13.4c-4.85,21.1-7.27,31.85-7.27,32.26v10.98h-3.7v2.16h2.78v6.48h-4.98v11.33h-15.69c-.15,0-.57-1.62-1.28-4.85h4.05v-2.64h-4.5c-.21,0-.63-1.7-1.28-5.11-.32-1.03-4.22-17.89-11.68-50.6Z"/>
          <path class="cls-7" d="m145.98,15.91h12.52v25.17h12.65V15.91h10.62v35.88h-4.36v1.59h4.36v25.7h-10.4c-.15,0-.22-.07-.22-.22v-27.28h-12.65v27.28c0,.15-.07.22-.22.22h-10.49v-32.93h-1.81V15.91Zm35.79,35.88h5.6v1.59h-5.6v-1.59Z"/>
          <path class="cls-7" d="m187.31,50.38h8.29v1.9h-8.29v-1.9Zm22.74-34.34h10.62c.15.62,3.59,12.09,10.31,34.42h1.94v20.76h-4.36v1.59h4.36v4.45h-11.73v-12.74h-14.32v5.42h-5.86v9.12h-10.62v-.62h.84v-8.51h4.36v-17.67h3.61l10.84-36.23Zm4.98,17.76v.09c-.91,5.02-2.67,12.93-5.29,23.71h9.87v-7.14h-.84c-2.35-10.2-3.53-15.75-3.53-16.66h-.22Zm6.17,44.21h14.15v1.06h-14.15v-1.06Z"/>
          <path class="cls-7" d="m261.3,15.91c8.81,0,14.35,2.76,16.62,8.29.67,1.32,1.01,2.2,1.01,2.64h-5.55v1.68h5.99v-.09c0-.29-.15-.82-.44-1.59h10.18v1.68h-9.65v.13c.5,2.38.85,4.92,1.06,7.63,0,.15-3.86.43-11.59.84v-.09c0-6.99-2.4-10.49-7.18-10.49h-1.32c-3.59,0-5.77,1.53-6.57,4.58-.62,2.56-.93,5.95-.93,10.18v8.59l-.13,1.28h-4.05v1.98h4.05v15.29h16.97v-15.91h9.79v15.91h-5.42v9.79h-11.33v.84h-8.81v-.84h-8.95v-4.89h5.95v-2.12h-8.95v-7.23h-3.79v-8.95h2.03c-.09-3.64-.13-6.54-.13-8.68,0-9.61.46-15.66,1.37-18.16.91-2.88,2.34-5.35,4.28-7.4,3.47-3.26,8.64-4.89,15.52-4.89Z"/>
          <path class="cls-7" d="m286.02,16.31h12.34v11.81c0,3.94-.07,8.18-.22,12.74v.13h.13c1-1.94,3.77-6.9,8.33-14.9,2.32-4.06,3.48-7.11,3.48-9.17v-.62h12.65v.31c0,4.03-1.65,8.42-4.94,13.18l-7.49,10.89,7.36,15.69h6.66v1.9h-7.49v.13c1.2,2.59,1.98,4.13,2.34,4.63h1.37v5.69h1.9v10.27c-2.15.06-3.73.09-4.76.09h-3.04c-1.09,0-2.57-.03-4.45-.09v-6.88h-2.73v-9.08h-1.59l-1.67-4.76h12.56v-1.9h-11.5c0-.15-.68-2.25-2.03-6.3h-.09c-.7,1.32-2.11,3.42-4.23,6.3h5.29v1.9h-5.82v3.09h-.75v14.32h.75v3.17c0,.15-.07.22-.22.22h-11.9c-.15,0-.22-.07-.22-.22v-4.94h5.6v-2.12h-5.6V16.31Zm5.07,40.07v1.9h7.19c0-.23.18-.87.53-1.9h-7.71Z"/>
        </g>
        <g>
          <path class="cls-2" d="m20.52,44.91v-18.47h2.56c3.59,0,6.2.47,7.85,1.41,2.76,1.7,4.14,5.66,4.14,11.86v5.51h1.67v13.4h-5.82v1.67h18.64v-15.07h-1.9c0-9.81-1.26-16.85-3.79-21.11-3.03-5.44-8.55-8.15-16.57-8.15H8.14v30.15h1.46v14.19h12.65v-15.38h-1.72Z"/>
          <path class="cls-2" d="m30.93,66.46h-8.68v-4.14h-14.02v-2.03H2.5v2.03h5.64v16.53c0,.15.06.22.18.22h13.93v-1.37h14.5v-11.24h12.83v-4.14h-18.64v4.14Z"/>
          <rect class="cls-2" x="49.57" y="60.29" width="12.43" height="2.03"/>
          <rect class="cls-2" x="22.24" y="60.29" width="8.68" height="2.03"/>
          <path class="cls-2" d="m59.38,16.35h30.9v10.27c0,.15-.07.22-.22.22h-18.34v13.58h16.44v.13c0,.38-.06,2.6-.18,6.66-.09,0-.13.03-.13.09h.75v3.17h-14.24v12.87h-3.84v1.28h3.84v3.92h16.13v1.46h-1.28v7.71h-19.31v1.37h-9.17v-22.48h-1.37v-7.93h-10.05v-1.37h10.05v-30.94Zm.09,30.94v1.37h5.16v-1.37h-5.16Z"/>
          <path class="cls-2" d="m98.42,15.87h13.4c.09.74,1.78,8.95,5.07,24.64h2.78v2.43h-3.35v-2.43h-4.72v2.43h4.72v11.33h1.5v5.86h3.7v-8.64h1.41v-8.55h2.65v-2.43h-2.07c3.29-15.69,4.98-23.9,5.07-24.64h13.4c-4.85,21.1-7.27,31.85-7.27,32.26v10.98h-3.7v2.16h2.78v6.48h-4.98v11.33h-15.69c-.15,0-.57-1.62-1.28-4.85h4.05v-2.64h-4.5c-.21,0-.63-1.7-1.28-5.11-.32-1.03-4.22-17.89-11.68-50.6Z"/>
          <path class="cls-2" d="m148.48,15.91h12.52v25.17h12.65V15.91h10.62v35.88h-4.36v1.59h4.36v25.7h-10.4c-.15,0-.22-.07-.22-.22v-27.28h-12.65v27.28c0,.15-.07.22-.22.22h-10.49v-32.93h-1.81V15.91Zm35.79,35.88h5.6v1.59h-5.6v-1.59Z"/>
          <path class="cls-2" d="m189.81,50.38h8.29v1.9h-8.29v-1.9Zm22.74-34.34h10.62c.15.62,3.59,12.09,10.31,34.42h1.94v20.76h-4.36v1.59h4.36v4.45h-11.73v-12.74h-14.32v5.42h-5.86v9.12h-10.62v-.62h.84v-8.51h4.36v-17.67h3.61l10.84-36.23Zm4.98,17.76v.09c-.91,5.02-2.67,12.93-5.29,23.71h9.87v-7.14h-.84c-2.35-10.2-3.53-15.75-3.53-16.66h-.22Zm6.17,44.21h14.15v1.06h-14.15v-1.06Z"/>
          <path class="cls-2" d="m263.8,15.91c8.81,0,14.35,2.76,16.62,8.29.67,1.32,1.01,2.2,1.01,2.64h-5.55v1.68h5.99v-.09c0-.29-.15-.82-.44-1.59h10.18v1.68h-9.65v.13c.5,2.38.85,4.92,1.06,7.63,0,.15-3.86.43-11.59.84v-.09c0-6.99-2.4-10.49-7.18-10.49h-1.32c-3.59,0-5.77,1.53-6.57,4.58-.62,2.56-.93,5.95-.93,10.18v8.59l-.13,1.28h-4.05v1.98h4.05v15.29h16.97v-15.91h9.79v15.91h-5.42v9.79h-11.33v.84h-8.81v-.84h-8.95v-4.89h5.95v-2.12h-8.95v-7.23h-3.79v-8.95h2.03c-.09-3.64-.13-6.54-.13-8.68,0-9.61.46-15.66,1.37-18.16.91-2.88,2.34-5.35,4.28-7.4,3.47-3.26,8.64-4.89,15.52-4.89Z"/>
          <path class="cls-2" d="m288.51,16.31h12.34v11.81c0,3.94-.07,8.18-.22,12.74v.13h.13c1-1.94,3.77-6.9,8.33-14.9,2.32-4.06,3.48-7.11,3.48-9.17v-.62h12.65v.31c0,4.03-1.65,8.42-4.94,13.18l-7.49,10.89,7.36,15.69h6.66v1.9h-7.49v.13c1.2,2.59,1.98,4.13,2.34,4.63h1.37v5.69h1.9v10.27c-2.15.06-3.73.09-4.76.09h-3.04c-1.09,0-2.57-.03-4.45-.09v-6.88h-2.73v-9.08h-1.59l-1.67-4.76h12.56v-1.9h-11.5c0-.15-.68-2.25-2.03-6.3h-.09c-.7,1.32-2.11,3.42-4.23,6.3h5.29v1.9h-5.82v3.09h-.75v14.32h.75v3.17c0,.15-.07.22-.22.22h-11.9c-.15,0-.22-.07-.22-.22v-4.94h5.6v-2.12h-5.6V16.31Zm5.07,40.07v1.9h7.19c0-.23.18-.87.53-1.9h-7.71Z"/>
        </g>
      </g>
      <text class="cls-3" transform="translate(124.19 97.37)"><tspan x="0" y="0">The Islamia Uni</tspan><tspan class="cls-5" x="80.73" y="0">v</tspan><tspan x="86.65" y="0">e</tspan><tspan class="cls-1" x="93.08" y="0">r</tspan><tspan class="cls-10" x="97.77" y="0">sity Of Bah</tspan><tspan class="cls-8" x="156.49" y="0">a</tspan><tspan class="cls-6" x="163.45" y="0">w</tspan><tspan x="172.28" y="0">alpur</tspan></text>
    </g>
  </g>
</svg>