<?xml version="1.0" encoding="UTF-8"?>
<svg id="Layer_2" data-name="Layer 2" xmlns="http://www.w3.org/2000/svg" viewBox="0 0 93.14 94.94">
  <defs>
    <style>
      .cls-1 {
        fill: #70cddd;
      }

      .cls-2 {
        fill: #b9539f;
      }

      .cls-3 {
        fill: #fff;
        stroke: #010101;
        stroke-miterlimit: 10;
        stroke-width: .54px;
      }
    </style>
  </defs>
  <g id="Layer_1-2" data-name="Layer 1">
    <g>
      <g>
        <path class="cls-1" d="m44.78,92.72c11.94-.13,23.15-4.87,31.56-13.36,8.42-8.5,13.05-19.76,13.05-31.72,0-11.96-4.63-23.22-13.05-31.72-8.41-8.49-19.62-13.23-31.56-13.36l-.04,3.54c22.67.24,41.11,18.87,41.11,41.54,0,22.67-18.44,41.3-41.11,41.54l.04,3.54Z"/>
        <path class="cls-1" d="m27.79,38.6h21.3c.98,0,1.77-.79,1.77-1.77s-.79-1.77-1.77-1.77h-19.53v-18.81c0-.98-.79-1.77-1.77-1.77s-1.77.79-1.77,1.77v20.58c0,.98.79,1.77,1.77,1.77Z"/>
        <path class="cls-1" d="m7.13,46.81h48.46c.98,0,1.77-.79,1.77-1.77,0-.98-.79-1.77-1.77-1.77H8.9v-6.62c0-.98-.79-1.77-1.77-1.77s-1.77.79-1.77,1.77v8.39c0,.98.79,1.77,1.77,1.77Z"/>
        <path class="cls-1" d="m8.44,55.01h48.12c.98,0,1.77-.79,1.77-1.77,0-.98-.79-1.77-1.77-1.77H8.44c-.98,0-1.77.79-1.77,1.77s.79,1.77,1.77,1.77Z"/>
        <path class="cls-1" d="m18.21,75.12h7.23c.98,0,1.77-.79,1.77-1.77v-9.78h22.36c.98,0,1.77-.79,1.77-1.77s-.79-1.77-1.77-1.77h-24.13c-.98,0-1.77.79-1.77,1.77v9.78h-5.46c-.98,0-1.77.79-1.77,1.77,0,.98.79,1.77,1.77,1.77Z"/>
        <g>
          <path class="cls-1" d="m40.55,90.73c0,1.2.97,2.17,2.17,2.17s2.17-.97,2.17-2.17c0-1.2-.97-2.17-2.17-2.17s-2.17.97-2.17,2.17Z"/>
          <path class="cls-1" d="m38.78,90.73c0-2.17,1.77-3.94,3.94-3.94,2.17,0,3.94,1.77,3.94,3.94,0,2.17-1.77,3.94-3.94,3.94s-3.94-1.77-3.94-3.94Zm3.54,0c0,.22.18.4.4.4s.4-.18.4-.4c0-.22-.18-.4-.4-.4s-.4.18-.4.4Z"/>
        </g>
        <g>
          <path class="cls-1" d="m40.55,4.2c0,1.2.97,2.17,2.17,2.17s2.17-.97,2.17-2.17c0-1.2-.97-2.17-2.17-2.17s-2.17.97-2.17,2.17Z"/>
          <path class="cls-1" d="m38.78,4.2c0-2.17,1.77-3.94,3.94-3.94s3.94,1.77,3.94,3.94c0,2.17-1.77,3.94-3.94,3.94s-3.94-1.77-3.94-3.94Zm3.54,0c0,.22.18.4.4.4s.4-.18.4-.4c0-.22-.18-.4-.4-.4s-.4.18-.4.4Z"/>
        </g>
        <g>
          <path class="cls-1" d="m66.92,57.78c.81,0,1.72-.15,2.73-.5,5.51-1.94,10.93-9.03,11.55-12.63.24-1.38,1.16-1.77,3.55-2.45.82-.23,1.66-.48,2.47-.84.9-.39,1.3-1.44.91-2.33-.39-.9-1.44-1.3-2.33-.91-.6.26-1.3.46-2.03.68-2.29.66-5.42,1.56-6.06,5.25-.4,2.33-4.93,8.37-9.23,9.89-1.71.6-2.62.18-3.17-.25.09-.91,1.79-3.26,2.82-4.69,2.22-3.08,4.15-5.74,3.38-8.08-.24-.73-.85-1.71-2.4-2.22-2.35-.76-3.84-.67-4.82-.6-.93.06-1.18.08-2.92-2.64-2.38-3.72-6.81-4.71-10.04-5.44-1.17-.26-2.92-.66-3.36-1.03.05-.99,1.07-2.31,2.51-3.24,1.47-.95,3.71-1.66,5.58-.81,3.75,1.69,7.04.47,8.22-1.53.83-1.4.75-3.5-1.28-5.03-1.39-1.04-2.28-2.68-2.38-3.41.18-.01.49,0,.97.09,3.04.61,6.26.34,8.83-.72.9-.37,1.33-1.41.96-2.31-.37-.9-1.41-1.33-2.31-.96-1.92.79-4.46.99-6.79.52-3.3-.66-4.49.82-4.91,1.76-1.15,2.56,1.3,6.22,3.5,7.87.27.21.36.36.37.4-.01,0-.13.19-.5.35-.31.14-1.47.54-3.23-.26-2.69-1.22-6.04-.82-8.96,1.06-2.55,1.65-4.13,4.06-4.13,6.29,0,3.04,3.25,3.77,6.12,4.41,2.93.66,6.24,1.4,7.84,3.9,2.45,3.83,3.68,4.42,6.13,4.26.84-.06,1.79-.12,3.5.44.05.02.09.03.12.04-.08.95-1.89,3.44-2.88,4.82-2.48,3.44-5.05,6.99-2.42,9.31.89.78,2.23,1.55,4.08,1.55Z"/>
          <path class="cls-1" d="m70.15,84.23c.37,0,.75-.12,1.07-.36,1.84-1.39,4.8-5.21,2.91-9.7-1.41-3.35-3.6-4.88-5.35-6.11-.84-.59-1.56-1.1-2.1-1.72-.57-.65-1.01-1.86-1.44-3.02-.83-2.24-1.85-5.03-4.64-5.14-2.1-.06-3.57,1.74-5.26,3.85-1.61,2.01-3.44,4.28-5.9,5.18-.94.34-2.05.43-3.13.52-1.42.11-2.89.23-4.09.94-.84.5-1.12,1.58-.63,2.42.5.84,1.58,1.12,2.42.63.5-.3,1.56-.38,2.58-.46,1.25-.1,2.67-.21,4.06-.72,3.39-1.23,5.64-4.03,7.45-6.29.77-.96,1.94-2.41,2.43-2.54.36.02,1.08,1.99,1.39,2.83.54,1.47,1.1,2.98,2.09,4.12.82.95,1.8,1.63,2.74,2.29,1.6,1.12,3.11,2.18,4.12,4.59,1.31,3.11-1.75,5.48-1.78,5.5-.78.59-.93,1.7-.34,2.48.35.46.88.7,1.41.7Z"/>
        </g>
        <path class="cls-1" d="m53.11,18.45c.98,0,1.77-.79,1.77-1.77v-5.79c0-.98-.79-1.77-1.77-1.77s-1.77.79-1.77,1.77v5.79c0,.98.79,1.77,1.77,1.77Z"/>
        <path class="cls-1" d="m48.1,21.1c.98,0,1.77-.79,1.77-1.77v-8.44c0-.98-.79-1.77-1.77-1.77s-1.77.79-1.77,1.77v8.44c0,.98.79,1.77,1.77,1.77Z"/>
        <path class="cls-1" d="m42.84,25.65c.98,0,1.77-.79,1.77-1.77v-12.98c0-.98-.79-1.77-1.77-1.77s-1.77.79-1.77,1.77v12.98c0,.98.79,1.77,1.77,1.77Z"/>
        <path class="cls-1" d="m46.05,77.26h8.41c.98,0,1.77-.79,1.77-1.77s-.79-1.77-1.77-1.77h-8.41c-.98,0-1.77.79-1.77,1.77,0,.98.79,1.77,1.77,1.77Z"/>
        <path class="cls-1" d="m41.82,81.96h7.02c.98,0,1.77-.79,1.77-1.77s-.79-1.77-1.77-1.77h-7.02c-.98,0-1.77.79-1.77,1.77,0,.98.79,1.77,1.77,1.77Z"/>
        <path class="cls-1" d="m46.54,86.66h7.02c.98,0,1.77-.79,1.77-1.77s-.79-1.77-1.77-1.77h-7.02c-.98,0-1.77.79-1.77,1.77,0,.98.79,1.77,1.77,1.77Z"/>
        <path class="cls-1" d="m22.9,11.88c0-2.66,2.16-4.82,4.82-4.82s4.82,2.16,4.82,4.82-2.16,4.82-4.82,4.82-4.82-2.16-4.82-4.82Zm3.06,0c0,.97.79,1.76,1.76,1.76s1.76-.79,1.76-1.76c0-.97-.79-1.76-1.76-1.76s-1.76.79-1.76,1.76Z"/>
        <path class="cls-1" d="m2.25,31.79c0-2.66,2.16-4.82,4.82-4.82,2.66,0,4.82,2.16,4.82,4.82s-2.16,4.82-4.82,4.82-4.82-2.16-4.82-4.82Zm3.06,0c0,.97.79,1.76,1.76,1.76s1.76-.79,1.76-1.76c0-.97-.79-1.76-1.76-1.76s-1.76.79-1.76,1.76Z"/>
        <path class="cls-1" d="m0,53.41c0-2.66,2.16-4.82,4.82-4.82,2.66,0,4.82,2.16,4.82,4.82s-2.16,4.82-4.82,4.82S0,56.07,0,53.41Zm3.06,0c0,.97.79,1.76,1.76,1.76s1.76-.79,1.76-1.76c0-.97-.79-1.76-1.76-1.76s-1.76.79-1.76,1.76Z"/>
        <path class="cls-1" d="m9.69,73.08c0-2.66,2.16-4.82,4.82-4.82s4.82,2.16,4.82,4.82c0,2.66-2.16,4.82-4.82,4.82s-4.82-2.16-4.82-4.82Zm3.06,0c0,.97.79,1.76,1.76,1.76s1.76-.79,1.76-1.76c0-.97-.79-1.76-1.76-1.76s-1.76.79-1.76,1.76Z"/>
      </g>
      <g>
        <path class="cls-2" d="m48.53,92.72c11.94-.13,23.15-4.87,31.56-13.36,8.42-8.5,13.05-19.76,13.05-31.72s-4.63-23.22-13.05-31.72c-8.41-8.49-19.62-13.23-31.56-13.36l-.04,3.54c22.67.24,41.11,18.87,41.11,41.54,0,22.67-18.44,41.3-41.11,41.54l.04,3.54Z"/>
        <path class="cls-2" d="m31.55,38.6h21.3c.98,0,1.77-.79,1.77-1.77,0-.98-.79-1.77-1.77-1.77h-19.53v-18.81c0-.98-.79-1.77-1.77-1.77s-1.77.79-1.77,1.77v20.58c0,.98.79,1.77,1.77,1.77Z"/>
        <path class="cls-2" d="m10.88,46.81h48.46c.98,0,1.77-.79,1.77-1.77,0-.98-.79-1.77-1.77-1.77H12.65v-6.62c0-.98-.79-1.77-1.77-1.77s-1.77.79-1.77,1.77v8.39c0,.98.79,1.77,1.77,1.77Z"/>
        <path class="cls-2" d="m12.19,55.01h48.12c.98,0,1.77-.79,1.77-1.77,0-.98-.79-1.77-1.77-1.77H12.19c-.98,0-1.77.79-1.77,1.77,0,.98.79,1.77,1.77,1.77Z"/>
        <path class="cls-2" d="m21.97,75.12h7.23c.98,0,1.77-.79,1.77-1.77v-9.78h22.36c.98,0,1.77-.79,1.77-1.77,0-.98-.79-1.77-1.77-1.77h-24.13c-.98,0-1.77.79-1.77,1.77v9.78h-5.46c-.98,0-1.77.79-1.77,1.77s.79,1.77,1.77,1.77Z"/>
        <g>
          <path class="cls-2" d="m44.3,90.73c0,1.2.97,2.17,2.17,2.17s2.17-.97,2.17-2.17-.97-2.17-2.17-2.17-2.17.97-2.17,2.17Z"/>
          <path class="cls-2" d="m42.53,90.73c0-2.17,1.77-3.94,3.94-3.94,2.17,0,3.94,1.77,3.94,3.94,0,2.17-1.77,3.94-3.94,3.94s-3.94-1.77-3.94-3.94Zm3.54,0c0,.22.18.4.4.4s.4-.18.4-.4c0-.22-.18-.4-.4-.4s-.4.18-.4.4Z"/>
        </g>
        <g>
          <path class="cls-2" d="m44.3,4.2c0,1.2.97,2.17,2.17,2.17s2.17-.97,2.17-2.17c0-1.2-.97-2.17-2.17-2.17s-2.17.97-2.17,2.17Z"/>
          <path class="cls-2" d="m42.53,4.2c0-2.17,1.77-3.94,3.94-3.94s3.94,1.77,3.94,3.94c0,2.17-1.77,3.94-3.94,3.94s-3.94-1.77-3.94-3.94Zm3.54,0c0,.22.18.4.4.4s.4-.18.4-.4c0-.22-.18-.4-.4-.4s-.4.18-.4.4Z"/>
        </g>
        <g>
          <path class="cls-2" d="m70.68,57.78c.81,0,1.72-.15,2.73-.5,5.51-1.94,10.93-9.03,11.55-12.63.24-1.38,1.16-1.77,3.55-2.45.82-.23,1.66-.48,2.47-.84.9-.39,1.3-1.44.91-2.33-.39-.9-1.44-1.3-2.33-.91-.6.26-1.3.46-2.03.68-2.29.66-5.42,1.56-6.06,5.25-.4,2.33-4.93,8.37-9.23,9.89-1.71.6-2.62.18-3.17-.25.09-.91,1.79-3.26,2.82-4.69,2.22-3.08,4.15-5.74,3.38-8.08-.24-.73-.85-1.71-2.4-2.22-2.35-.76-3.84-.67-4.82-.6-.93.06-1.18.08-2.92-2.64-2.38-3.72-6.81-4.71-10.04-5.44-1.17-.26-2.92-.66-3.36-1.03.05-.99,1.07-2.31,2.51-3.24,1.47-.95,3.71-1.66,5.58-.81,3.75,1.69,7.04.47,8.22-1.53.83-1.4.75-3.5-1.28-5.03-1.39-1.04-2.28-2.68-2.38-3.41.18-.01.49,0,.97.09,3.04.61,6.26.34,8.83-.72.9-.37,1.33-1.41.96-2.31-.37-.9-1.41-1.33-2.31-.96-1.92.79-4.46.99-6.79.52-3.3-.66-4.49.82-4.91,1.76-1.15,2.56,1.3,6.22,3.5,7.87.27.21.36.36.37.4-.01,0-.13.19-.5.35-.31.14-1.47.54-3.23-.26-2.69-1.22-6.04-.82-8.96,1.06-2.55,1.65-4.13,4.06-4.13,6.29,0,3.04,3.25,3.77,6.12,4.41,2.93.66,6.24,1.4,7.84,3.9,2.45,3.83,3.68,4.42,6.13,4.26.84-.06,1.79-.12,3.5.44.05.02.09.03.12.04-.08.95-1.89,3.44-2.88,4.82-2.48,3.44-5.05,6.99-2.42,9.31.89.78,2.23,1.55,4.08,1.55Z"/>
          <path class="cls-2" d="m73.91,84.23c.37,0,.75-.12,1.07-.36,1.84-1.39,4.8-5.21,2.91-9.7-1.41-3.35-3.6-4.88-5.35-6.11-.84-.59-1.56-1.1-2.1-1.72-.57-.65-1.01-1.86-1.44-3.02-.83-2.24-1.85-5.03-4.64-5.14-2.1-.06-3.57,1.74-5.26,3.85-1.61,2.01-3.44,4.28-5.9,5.18-.94.34-2.05.43-3.13.52-1.42.11-2.89.23-4.09.94-.84.5-1.12,1.58-.63,2.42.5.84,1.58,1.12,2.42.63.5-.3,1.56-.38,2.58-.46,1.25-.1,2.67-.21,4.06-.72,3.39-1.23,5.64-4.03,7.45-6.29.77-.96,1.94-2.41,2.43-2.54.36.02,1.08,1.99,1.39,2.83.54,1.47,1.1,2.98,2.09,4.12.82.95,1.8,1.63,2.74,2.29,1.6,1.12,3.11,2.18,4.12,4.59,1.31,3.11-1.75,5.48-1.78,5.5-.78.59-.93,1.7-.34,2.48.35.46.88.7,1.41.7Z"/>
        </g>
        <path class="cls-2" d="m56.87,18.45c.98,0,1.77-.79,1.77-1.77v-5.79c0-.98-.79-1.77-1.77-1.77s-1.77.79-1.77,1.77v5.79c0,.98.79,1.77,1.77,1.77Z"/>
        <path class="cls-2" d="m51.85,21.1c.98,0,1.77-.79,1.77-1.77v-8.44c0-.98-.79-1.77-1.77-1.77s-1.77.79-1.77,1.77v8.44c0,.98.79,1.77,1.77,1.77Z"/>
        <path class="cls-2" d="m46.59,25.65c.98,0,1.77-.79,1.77-1.77v-12.98c0-.98-.79-1.77-1.77-1.77s-1.77.79-1.77,1.77v12.98c0,.98.79,1.77,1.77,1.77Z"/>
        <path class="cls-2" d="m49.8,77.26h8.41c.98,0,1.77-.79,1.77-1.77,0-.98-.79-1.77-1.77-1.77h-8.41c-.98,0-1.77.79-1.77,1.77,0,.98.79,1.77,1.77,1.77Z"/>
        <path class="cls-2" d="m45.58,81.96h7.02c.98,0,1.77-.79,1.77-1.77,0-.98-.79-1.77-1.77-1.77h-7.02c-.98,0-1.77.79-1.77,1.77,0,.98.79,1.77,1.77,1.77Z"/>
        <path class="cls-2" d="m50.3,86.66h7.02c.98,0,1.77-.79,1.77-1.77,0-.98-.79-1.77-1.77-1.77h-7.02c-.98,0-1.77.79-1.77,1.77,0,.98.79,1.77,1.77,1.77Z"/>
        <path class="cls-2" d="m26.66,11.88c0-2.66,2.16-4.82,4.82-4.82s4.82,2.16,4.82,4.82-2.16,4.82-4.82,4.82-4.82-2.16-4.82-4.82Zm3.06,0c0,.97.79,1.76,1.76,1.76s1.76-.79,1.76-1.76-.79-1.76-1.76-1.76-1.76.79-1.76,1.76Z"/>
        <path class="cls-2" d="m6.01,31.79c0-2.66,2.16-4.82,4.82-4.82,2.66,0,4.82,2.16,4.82,4.82s-2.16,4.82-4.82,4.82-4.82-2.16-4.82-4.82Zm3.06,0c0,.97.79,1.76,1.76,1.76s1.76-.79,1.76-1.76c0-.97-.79-1.76-1.76-1.76s-1.76.79-1.76,1.76Z"/>
        <path class="cls-2" d="m3.76,53.41c0-2.66,2.16-4.82,4.82-4.82,2.66,0,4.82,2.16,4.82,4.82,0,2.66-2.16,4.82-4.82,4.82s-4.82-2.16-4.82-4.82Zm3.06,0c0,.97.79,1.76,1.76,1.76s1.76-.79,1.76-1.76-.79-1.76-1.76-1.76-1.76.79-1.76,1.76Z"/>
        <path class="cls-2" d="m13.44,73.08c0-2.66,2.16-4.82,4.82-4.82s4.82,2.16,4.82,4.82-2.16,4.82-4.82,4.82-4.82-2.16-4.82-4.82Zm3.06,0c0,.97.79,1.76,1.76,1.76s1.76-.79,1.76-1.76c0-.97-.79-1.76-1.76-1.76s-1.76.79-1.76,1.76Z"/>
      </g>
      <g>
        <path class="cls-3" d="m46.39,92.72c11.94-.13,23.15-4.87,31.56-13.36,8.42-8.5,13.05-19.76,13.05-31.72,0-11.96-4.63-23.22-13.05-31.72-8.41-8.49-19.62-13.23-31.56-13.36l-.04,3.54c22.67.24,41.11,18.87,41.11,41.54s-18.44,41.3-41.11,41.54l.04,3.54Z"/>
        <path class="cls-3" d="m29.4,38.6h21.3c.98,0,1.77-.79,1.77-1.77,0-.98-.79-1.77-1.77-1.77h-19.53v-18.81c0-.98-.79-1.77-1.77-1.77s-1.77.79-1.77,1.77v20.58c0,.98.79,1.77,1.77,1.77Z"/>
        <path class="cls-3" d="m8.74,46.81h48.46c.98,0,1.77-.79,1.77-1.77s-.79-1.77-1.77-1.77H10.51v-6.62c0-.98-.79-1.77-1.77-1.77s-1.77.79-1.77,1.77v8.39c0,.98.79,1.77,1.77,1.77Z"/>
        <path class="cls-3" d="m10.05,55.01h48.12c.98,0,1.77-.79,1.77-1.77,0-.98-.79-1.77-1.77-1.77H10.05c-.98,0-1.77.79-1.77,1.77,0,.98.79,1.77,1.77,1.77Z"/>
        <path class="cls-3" d="m19.82,75.12h7.23c.98,0,1.77-.79,1.77-1.77v-9.78h22.36c.98,0,1.77-.79,1.77-1.77,0-.98-.79-1.77-1.77-1.77h-24.13c-.98,0-1.77.79-1.77,1.77v9.78h-5.46c-.98,0-1.77.79-1.77,1.77,0,.98.79,1.77,1.77,1.77Z"/>
        <g>
          <path class="cls-3" d="m42.16,90.73c0,1.2.97,2.17,2.17,2.17s2.17-.97,2.17-2.17c0-1.2-.97-2.17-2.17-2.17s-2.17.97-2.17,2.17Z"/>
          <path class="cls-3" d="m40.39,90.73c0-2.17,1.77-3.94,3.94-3.94,2.17,0,3.94,1.77,3.94,3.94s-1.77,3.94-3.94,3.94-3.94-1.77-3.94-3.94Zm3.54,0c0,.22.18.4.4.4s.4-.18.4-.4c0-.22-.18-.4-.4-.4s-.4.18-.4.4Z"/>
        </g>
        <g>
          <path class="cls-3" d="m42.16,4.2c0,1.2.97,2.17,2.17,2.17s2.17-.97,2.17-2.17c0-1.2-.97-2.17-2.17-2.17s-2.17.97-2.17,2.17Z"/>
          <path class="cls-3" d="m40.39,4.2c0-2.17,1.77-3.94,3.94-3.94s3.94,1.77,3.94,3.94c0,2.17-1.77,3.94-3.94,3.94s-3.94-1.77-3.94-3.94Zm3.54,0c0,.22.18.4.4.4s.4-.18.4-.4c0-.22-.18-.4-.4-.4s-.4.18-.4.4Z"/>
        </g>
        <g>
          <path class="cls-3" d="m68.53,57.78c.81,0,1.72-.15,2.73-.5,5.51-1.94,10.93-9.03,11.55-12.63.24-1.38,1.16-1.77,3.55-2.45.82-.23,1.66-.48,2.47-.84.9-.39,1.3-1.44.91-2.33-.39-.9-1.44-1.3-2.33-.91-.6.26-1.3.46-2.03.68-2.29.66-5.42,1.56-6.06,5.25-.4,2.33-4.93,8.37-9.23,9.89-1.71.6-2.62.18-3.17-.25.09-.91,1.79-3.26,2.82-4.69,2.22-3.08,4.15-5.74,3.38-8.08-.24-.73-.85-1.71-2.4-2.22-2.35-.76-3.84-.67-4.82-.6-.93.06-1.18.08-2.92-2.64-2.38-3.72-6.81-4.71-10.04-5.44-1.17-.26-2.92-.66-3.36-1.03.05-.99,1.07-2.31,2.51-3.24,1.47-.95,3.71-1.66,5.58-.81,3.75,1.69,7.04.47,8.22-1.53.83-1.4.75-3.5-1.28-5.03-1.39-1.04-2.28-2.68-2.38-3.41.18-.01.49,0,.97.09,3.04.61,6.26.34,8.83-.72.9-.37,1.33-1.41.96-2.31-.37-.9-1.41-1.33-2.31-.96-1.92.79-4.46.99-6.79.52-3.3-.66-4.49.82-4.91,1.76-1.15,2.56,1.3,6.22,3.5,7.87.27.21.36.36.37.4-.01,0-.13.19-.5.35-.31.14-1.47.54-3.23-.26-2.69-1.22-6.04-.82-8.96,1.06-2.55,1.65-4.13,4.06-4.13,6.29,0,3.04,3.25,3.77,6.12,4.41,2.93.66,6.24,1.4,7.84,3.9,2.45,3.83,3.68,4.42,6.13,4.26.84-.06,1.79-.12,3.5.44.05.02.09.03.12.04-.08.95-1.89,3.44-2.88,4.82-2.48,3.44-5.05,6.99-2.42,9.31.89.78,2.23,1.55,4.08,1.55Z"/>
          <path class="cls-3" d="m71.76,84.23c.37,0,.75-.12,1.07-.36,1.84-1.39,4.8-5.21,2.91-9.7-1.41-3.35-3.6-4.88-5.35-6.11-.84-.59-1.56-1.1-2.1-1.72-.57-.65-1.01-1.86-1.44-3.02-.83-2.24-1.85-5.03-4.64-5.14-2.1-.06-3.57,1.74-5.26,3.85-1.61,2.01-3.44,4.28-5.9,5.18-.94.34-2.05.43-3.13.52-1.42.11-2.89.23-4.09.94-.84.5-1.12,1.58-.63,2.42.5.84,1.58,1.12,2.42.63.5-.3,1.56-.38,2.58-.46,1.25-.1,2.67-.21,4.06-.72,3.39-1.23,5.64-4.03,7.45-6.29.77-.96,1.94-2.41,2.43-2.54.36.02,1.08,1.99,1.39,2.83.54,1.47,1.1,2.98,2.09,4.12.82.95,1.8,1.63,2.74,2.29,1.6,1.12,3.11,2.18,4.12,4.59,1.31,3.11-1.75,5.48-1.78,5.5-.78.59-.93,1.7-.34,2.48.35.46.88.7,1.41.7Z"/>
        </g>
        <path class="cls-3" d="m54.72,18.45c.98,0,1.77-.79,1.77-1.77v-5.79c0-.98-.79-1.77-1.77-1.77s-1.77.79-1.77,1.77v5.79c0,.98.79,1.77,1.77,1.77Z"/>
        <path class="cls-3" d="m49.7,21.1c.98,0,1.77-.79,1.77-1.77v-8.44c0-.98-.79-1.77-1.77-1.77s-1.77.79-1.77,1.77v8.44c0,.98.79,1.77,1.77,1.77Z"/>
        <path class="cls-3" d="m44.44,25.65c.98,0,1.77-.79,1.77-1.77v-12.98c0-.98-.79-1.77-1.77-1.77s-1.77.79-1.77,1.77v12.98c0,.98.79,1.77,1.77,1.77Z"/>
        <path class="cls-3" d="m47.65,77.26h8.41c.98,0,1.77-.79,1.77-1.77,0-.98-.79-1.77-1.77-1.77h-8.41c-.98,0-1.77.79-1.77,1.77,0,.98.79,1.77,1.77,1.77Z"/>
        <path class="cls-3" d="m43.43,81.96h7.02c.98,0,1.77-.79,1.77-1.77,0-.98-.79-1.77-1.77-1.77h-7.02c-.98,0-1.77.79-1.77,1.77,0,.98.79,1.77,1.77,1.77Z"/>
        <path class="cls-3" d="m48.15,86.66h7.02c.98,0,1.77-.79,1.77-1.77s-.79-1.77-1.77-1.77h-7.02c-.98,0-1.77.79-1.77,1.77,0,.98.79,1.77,1.77,1.77Z"/>
        <path class="cls-3" d="m24.51,11.88c0-2.66,2.16-4.82,4.82-4.82s4.82,2.16,4.82,4.82-2.16,4.82-4.82,4.82-4.82-2.16-4.82-4.82Zm3.06,0c0,.97.79,1.76,1.76,1.76s1.76-.79,1.76-1.76c0-.97-.79-1.76-1.76-1.76s-1.76.79-1.76,1.76Z"/>
        <path class="cls-3" d="m3.86,31.79c0-2.66,2.16-4.82,4.82-4.82,2.66,0,4.82,2.16,4.82,4.82,0,2.66-2.16,4.82-4.82,4.82s-4.82-2.16-4.82-4.82Zm3.06,0c0,.97.79,1.76,1.76,1.76s1.76-.79,1.76-1.76c0-.97-.79-1.76-1.76-1.76s-1.76.79-1.76,1.76Z"/>
        <path class="cls-3" d="m1.61,53.41c0-2.66,2.16-4.82,4.82-4.82,2.66,0,4.82,2.16,4.82,4.82,0,2.66-2.16,4.82-4.82,4.82s-4.82-2.16-4.82-4.82Zm3.06,0c0,.97.79,1.76,1.76,1.76s1.76-.79,1.76-1.76c0-.97-.79-1.76-1.76-1.76s-1.76.79-1.76,1.76Z"/>
        <path class="cls-3" d="m11.3,73.08c0-2.66,2.16-4.82,4.82-4.82s4.82,2.16,4.82,4.82-2.16,4.82-4.82,4.82-4.82-2.16-4.82-4.82Zm3.06,0c0,.97.79,1.76,1.76,1.76s1.76-.79,1.76-1.76c0-.97-.79-1.76-1.76-1.76s-1.76.79-1.76,1.76Z"/>
      </g>
    </g>
  </g>
</svg>