<?xml version="1.0" encoding="UTF-8"?>
<svg id="Layer_2" data-name="Layer 2" xmlns="http://www.w3.org/2000/svg" viewBox="0 0 329.32 63.77">
  <defs>
    <style>
      .cls-1 {
        fill: #fff;
        stroke: #010101;
        stroke-miterlimit: 10;
        stroke-width: .56px;
      }

      .cls-2 {
        fill: #70cddd;
      }

      .cls-3 {
        fill: #b9539f;
      }
    </style>
  </defs>
  <g id="Layer_1-2" data-name="Layer 1">
    <g>
      <g>
        <rect class="cls-3" x="52.07" y="44.71" width="12.43" height="2.03"/>
        <path class="cls-3" d="m33.43,50.88h-8.68v-4.14h-14.02v-2.03h-5.73v2.03h5.64v16.53c0,.15.06.22.18.22h13.93v-1.37h14.5v-11.24h12.83v-4.14h-18.64v4.14Z"/>
        <rect class="cls-3" x="24.74" y="44.71" width="8.68" height="2.03"/>
        <path class="cls-3" d="m23.02,29.33V10.86h2.56c3.59,0,6.2.47,7.85,1.41,2.76,1.7,4.14,5.66,4.14,11.86v5.51h1.67v13.4h-5.82v1.67h18.64v-15.07h-1.9c0-9.81-1.26-16.85-3.79-21.11C43.36,3.09,37.83.37,29.81.37H10.64v30.15h1.46v14.19h12.65v-15.38h-1.72Z"/>
        <path class="cls-3" d="m61.88.77h30.9v10.27c0,.15-.07.22-.22.22h-18.34v13.58h16.44v.13c0,.38-.06,2.6-.18,6.66-.09,0-.13.03-.13.09h.75v3.17h-14.24v12.87h-3.84v1.28h3.84v3.92h16.13v1.46h-1.28v7.71h-19.31v1.37h-9.17v-22.48h-1.37v-7.93h-10.05v-1.37h10.05V.77Zm.09,30.94v1.37h5.16v-1.37h-5.16Z"/>
        <path class="cls-3" d="m100.92.28h13.4c.09.74,1.78,8.95,5.07,24.64h2.78v2.43h-3.35v-2.43h-4.72v2.43h4.72v11.33h1.5v5.86h3.7v-8.64h1.41v-8.55h2.65v-2.43h-2.07c3.29-15.69,4.98-23.9,5.07-24.64h13.4c-4.85,21.1-7.27,31.85-7.27,32.26v10.98h-3.7v2.16h2.78v6.48h-4.98v11.33h-15.69c-.15,0-.57-1.62-1.28-4.85h4.05v-2.64h-4.5c-.21,0-.63-1.7-1.28-5.11-.32-1.03-4.22-17.89-11.68-50.6Z"/>
        <path class="cls-3" d="m150.98.33h12.52v25.17h12.65V.33h10.62v35.88h-4.36v1.59h4.36v25.7h-10.4c-.15,0-.22-.07-.22-.22v-27.28h-12.65v27.28c0,.15-.07.22-.22.22h-10.49V30.56h-1.81V.33Zm35.79,35.88h5.6v1.59h-5.6v-1.59Z"/>
        <path class="cls-3" d="m192.31,34.79h8.29v1.9h-8.29v-1.9ZM215.05.46h10.62c.15.62,3.59,12.09,10.31,34.42h1.94v20.76h-4.36v1.59h4.36v4.45h-11.73v-12.74h-14.32v5.42h-5.86v9.12h-10.62v-.62h.84v-8.51h4.36v-17.67h3.61L215.05.46Zm4.98,17.76v.09c-.91,5.02-2.67,12.93-5.29,23.71h9.87v-7.14h-.84c-2.35-10.2-3.53-15.75-3.53-16.66h-.22Zm6.17,44.21h14.15v1.06h-14.15v-1.06Z"/>
        <path class="cls-3" d="m266.3.33c8.81,0,14.35,2.76,16.62,8.29.67,1.32,1.01,2.2,1.01,2.64h-5.55v1.68h5.99v-.09c0-.29-.15-.82-.44-1.59h10.18v1.68h-9.65v.13c.5,2.38.85,4.92,1.06,7.63,0,.15-3.86.43-11.59.84v-.09c0-6.99-2.4-10.49-7.18-10.49h-1.32c-3.59,0-5.77,1.53-6.57,4.58-.62,2.56-.93,5.95-.93,10.18v8.59l-.13,1.28h-4.05v1.98h4.05v15.29h16.97v-15.91h9.79v15.91h-5.42v9.79h-11.33v.84h-8.81v-.84h-8.95v-4.89h5.95v-2.12h-8.95v-7.23h-3.79v-8.95h2.03c-.09-3.64-.13-6.54-.13-8.68,0-9.61.46-15.66,1.37-18.16.91-2.88,2.34-5.35,4.28-7.4,3.47-3.26,8.64-4.89,15.52-4.89Z"/>
        <path class="cls-3" d="m291.01.72h12.34v11.81c0,3.94-.07,8.18-.22,12.74v.13h.13c1-1.94,3.77-6.9,8.33-14.9,2.32-4.06,3.48-7.11,3.48-9.17v-.62h12.65v.31c0,4.03-1.65,8.42-4.94,13.18l-7.49,10.89,7.36,15.69h6.66v1.9h-7.49v.13c1.2,2.59,1.98,4.13,2.34,4.63h1.37v5.69h1.9v10.27c-2.15.06-3.73.09-4.76.09h-3.04c-1.09,0-2.57-.03-4.45-.09v-6.88h-2.73v-9.08h-1.59l-1.67-4.76h12.56v-1.9h-11.5c0-.15-.68-2.25-2.03-6.3h-.09c-.7,1.32-2.11,3.42-4.23,6.3h5.29v1.9h-5.82v3.09h-.75v14.32h.75v3.17c0,.15-.07.22-.22.22h-11.9c-.15,0-.22-.07-.22-.22v-4.94h5.6v-2.12h-5.6V.72Zm5.07,40.07v1.9h7.19c0-.23.18-.87.53-1.9h-7.71Z"/>
      </g>
      <g>
        <rect class="cls-2" x="19.75" y="44.71" width="8.68" height="2.03"/>
        <path class="cls-2" d="m28.43,50.88h-8.68v-4.14H5.73v-2.03H0v2.03h5.64v16.53c0,.15.06.22.18.22h13.93v-1.37h14.5v-11.24h12.83v-4.14h-18.64v4.14Z"/>
        <path class="cls-2" d="m18.03,29.33V10.86h2.56c3.59,0,6.2.47,7.85,1.41,2.76,1.7,4.14,5.66,4.14,11.86v5.51h1.67v13.4h-5.82v1.67h18.64v-15.07h-1.9c0-9.81-1.26-16.85-3.79-21.11C38.36,3.09,32.84.37,24.82.37H5.64v30.15h1.46v14.19h12.65v-15.38h-1.72Z"/>
        <rect class="cls-2" x="47.07" y="44.71" width="12.43" height="2.03"/>
        <path class="cls-2" d="m56.89.77h30.9v10.27c0,.15-.07.22-.22.22h-18.34v13.58h16.44v.13c0,.38-.06,2.6-.18,6.66-.09,0-.13.03-.13.09h.75v3.17h-14.24v12.87h-3.84v1.28h3.84v3.92h16.13v1.46h-1.28v7.71h-19.31v1.37h-9.17v-22.48h-1.37v-7.93h-10.05v-1.37h10.05V.77Zm.09,30.94v1.37h5.16v-1.37h-5.16Z"/>
        <path class="cls-2" d="m95.93.28h13.4c.09.74,1.78,8.95,5.07,24.64h2.78v2.43h-3.35v-2.43h-4.72v2.43h4.72v11.33h1.5v5.86h3.7v-8.64h1.41v-8.55h2.65v-2.43h-2.07c3.29-15.69,4.98-23.9,5.07-24.64h13.4c-4.85,21.1-7.27,31.85-7.27,32.26v10.98h-3.7v2.16h2.78v6.48h-4.98v11.33h-15.69c-.15,0-.57-1.62-1.28-4.85h4.05v-2.64h-4.5c-.21,0-.63-1.7-1.28-5.11-.32-1.03-4.22-17.89-11.68-50.6Z"/>
        <path class="cls-2" d="m145.98.33h12.52v25.17h12.65V.33h10.62v35.88h-4.36v1.59h4.36v25.7h-10.4c-.15,0-.22-.07-.22-.22v-27.28h-12.65v27.28c0,.15-.07.22-.22.22h-10.49V30.56h-1.81V.33Zm35.79,35.88h5.6v1.59h-5.6v-1.59Z"/>
        <path class="cls-2" d="m187.31,34.79h8.29v1.9h-8.29v-1.9ZM210.06.46h10.62c.15.62,3.59,12.09,10.31,34.42h1.94v20.76h-4.36v1.59h4.36v4.45h-11.73v-12.74h-14.32v5.42h-5.86v9.12h-10.62v-.62h.84v-8.51h4.36v-17.67h3.61L210.06.46Zm4.98,17.76v.09c-.91,5.02-2.67,12.93-5.29,23.71h9.87v-7.14h-.84c-2.35-10.2-3.53-15.75-3.53-16.66h-.22Zm6.17,44.21h14.15v1.06h-14.15v-1.06Z"/>
        <path class="cls-2" d="m261.3.33c8.81,0,14.35,2.76,16.62,8.29.67,1.32,1.01,2.2,1.01,2.64h-5.55v1.68h5.99v-.09c0-.29-.15-.82-.44-1.59h10.18v1.68h-9.65v.13c.5,2.38.85,4.92,1.06,7.63,0,.15-3.86.43-11.59.84v-.09c0-6.99-2.4-10.49-7.18-10.49h-1.32c-3.59,0-5.77,1.53-6.57,4.58-.62,2.56-.93,5.95-.93,10.18v8.59l-.13,1.28h-4.05v1.98h4.05v15.29h16.97v-15.91h9.79v15.91h-5.42v9.79h-11.33v.84h-8.81v-.84h-8.95v-4.89h5.95v-2.12h-8.95v-7.23h-3.79v-8.95h2.03c-.09-3.64-.13-6.54-.13-8.68,0-9.61.46-15.66,1.37-18.16.91-2.88,2.34-5.35,4.28-7.4,3.47-3.26,8.64-4.89,15.52-4.89Z"/>
        <path class="cls-2" d="m286.02.72h12.34v11.81c0,3.94-.07,8.18-.22,12.74v.13h.13c1-1.94,3.77-6.9,8.33-14.9,2.32-4.06,3.48-7.11,3.48-9.17v-.62h12.65v.31c0,4.03-1.65,8.42-4.94,13.18l-7.49,10.89,7.36,15.69h6.66v1.9h-7.49v.13c1.2,2.59,1.98,4.13,2.34,4.63h1.37v5.69h1.9v10.27c-2.15.06-3.73.09-4.76.09h-3.04c-1.09,0-2.57-.03-4.45-.09v-6.88h-2.73v-9.08h-1.59l-1.67-4.76h12.56v-1.9h-11.5c0-.15-.68-2.25-2.03-6.3h-.09c-.7,1.32-2.11,3.42-4.23,6.3h5.29v1.9h-5.82v3.09h-.75v14.32h.75v3.17c0,.15-.07.22-.22.22h-11.9c-.15,0-.22-.07-.22-.22v-4.94h5.6v-2.12h-5.6V.72Zm5.07,40.07v1.9h7.19c0-.23.18-.87.53-1.9h-7.71Z"/>
      </g>
      <g>
        <path class="cls-1" d="m20.52,29.33V10.86h2.56c3.59,0,6.2.47,7.85,1.41,2.76,1.7,4.14,5.66,4.14,11.86v5.51h1.67v13.4h-5.82v1.67h18.64v-15.07h-1.9c0-9.81-1.26-16.85-3.79-21.11C40.86,3.09,35.33.37,27.31.37H8.14v30.15h1.46v14.19h12.65v-15.38h-1.72Z"/>
        <path class="cls-1" d="m30.93,50.88h-8.68v-4.14h-14.02v-2.03H2.5v2.03h5.64v16.53c0,.15.06.22.18.22h13.93v-1.37h14.5v-11.24h12.83v-4.14h-18.64v4.14Z"/>
        <rect class="cls-1" x="49.57" y="44.71" width="12.43" height="2.03"/>
        <rect class="cls-1" x="22.24" y="44.71" width="8.68" height="2.03"/>
        <path class="cls-1" d="m59.38.77h30.9v10.27c0,.15-.07.22-.22.22h-18.34v13.58h16.44v.13c0,.38-.06,2.6-.18,6.66-.09,0-.13.03-.13.09h.75v3.17h-14.24v12.87h-3.84v1.28h3.84v3.92h16.13v1.46h-1.28v7.71h-19.31v1.37h-9.17v-22.48h-1.37v-7.93h-10.05v-1.37h10.05V.77Zm.09,30.94v1.37h5.16v-1.37h-5.16Z"/>
        <path class="cls-1" d="m98.42.28h13.4c.09.74,1.78,8.95,5.07,24.64h2.78v2.43h-3.35v-2.43h-4.72v2.43h4.72v11.33h1.5v5.86h3.7v-8.64h1.41v-8.55h2.65v-2.43h-2.07c3.29-15.69,4.98-23.9,5.07-24.64h13.4c-4.85,21.1-7.27,31.85-7.27,32.26v10.98h-3.7v2.16h2.78v6.48h-4.98v11.33h-15.69c-.15,0-.57-1.62-1.28-4.85h4.05v-2.64h-4.5c-.21,0-.63-1.7-1.28-5.11-.32-1.03-4.22-17.89-11.68-50.6Z"/>
        <path class="cls-1" d="m148.48.33h12.52v25.17h12.65V.33h10.62v35.88h-4.36v1.59h4.36v25.7h-10.4c-.15,0-.22-.07-.22-.22v-27.28h-12.65v27.28c0,.15-.07.22-.22.22h-10.49V30.56h-1.81V.33Zm35.79,35.88h5.6v1.59h-5.6v-1.59Z"/>
        <path class="cls-1" d="m189.81,34.79h8.29v1.9h-8.29v-1.9ZM212.56.46h10.62c.15.62,3.59,12.09,10.31,34.42h1.94v20.76h-4.36v1.59h4.36v4.45h-11.73v-12.74h-14.32v5.42h-5.86v9.12h-10.62v-.62h.84v-8.51h4.36v-17.67h3.61L212.56.46Zm4.98,17.76v.09c-.91,5.02-2.67,12.93-5.29,23.71h9.87v-7.14h-.84c-2.35-10.2-3.53-15.75-3.53-16.66h-.22Zm6.17,44.21h14.15v1.06h-14.15v-1.06Z"/>
        <path class="cls-1" d="m263.8.33c8.81,0,14.35,2.76,16.62,8.29.67,1.32,1.01,2.2,1.01,2.64h-5.55v1.68h5.99v-.09c0-.29-.15-.82-.44-1.59h10.18v1.68h-9.65v.13c.5,2.38.85,4.92,1.06,7.63,0,.15-3.86.43-11.59.84v-.09c0-6.99-2.4-10.49-7.18-10.49h-1.32c-3.59,0-5.77,1.53-6.57,4.58-.62,2.56-.93,5.95-.93,10.18v8.59l-.13,1.28h-4.05v1.98h4.05v15.29h16.97v-15.91h9.79v15.91h-5.42v9.79h-11.33v.84h-8.81v-.84h-8.95v-4.89h5.95v-2.12h-8.95v-7.23h-3.79v-8.95h2.03c-.09-3.64-.13-6.54-.13-8.68,0-9.61.46-15.66,1.37-18.16.91-2.88,2.34-5.35,4.28-7.4,3.47-3.26,8.64-4.89,15.52-4.89Z"/>
        <path class="cls-1" d="m288.51.72h12.34v11.81c0,3.94-.07,8.18-.22,12.74v.13h.13c1-1.94,3.77-6.9,8.33-14.9,2.32-4.06,3.48-7.11,3.48-9.17v-.62h12.65v.31c0,4.03-1.65,8.42-4.94,13.18l-7.49,10.89,7.36,15.69h6.66v1.9h-7.49v.13c1.2,2.59,1.98,4.13,2.34,4.63h1.37v5.69h1.9v10.27c-2.15.06-3.73.09-4.76.09h-3.04c-1.09,0-2.57-.03-4.45-.09v-6.88h-2.73v-9.08h-1.59l-1.67-4.76h12.56v-1.9h-11.5c0-.15-.68-2.25-2.03-6.3h-.09c-.7,1.32-2.11,3.42-4.23,6.3h5.29v1.9h-5.82v3.09h-.75v14.32h.75v3.17c0,.15-.07.22-.22.22h-11.9c-.15,0-.22-.07-.22-.22v-4.94h5.6v-2.12h-5.6V.72Zm5.07,40.07v1.9h7.19c0-.23.18-.87.53-1.9h-7.71Z"/>
      </g>
    </g>
  </g>
</svg>